# xmcd
#
# Track frame offsets:
#	150
#	13275
#	23394
#	35393
#	48217
#	60964
#	73199
#	87522
#	99522
#	112343
#	128017
#	141580
#
# Disc length: 2062 seconds
#
# Revision: 1
# Processed by: cddbd v1.5.2PL0 Copyright (c) Steve Scherf et al.
# Submitted via: audiograbber 1.83.01
#
DISCID=a3080c0c
DTITLE=Bill Haley  - Golden Country Origins
DYEAR=1947
DGENRE=Country
TTITLE0=Yodel Your Blues Away
TTITLE1=Rovin' Eyes
TTITLE2=Rose Of My Heart
TTITLE3=A Yodellers Lullaby
TTITLE4=Candy And Woman
TTITLE5=Foolish Questions
TTITLE6=The Covered Wagon Rolled On
TTITLE7=Wreck On The  Highway
TTITLE8=Behind The Eight Ball
TTITLE9=My Mom Heard Me Cry
TTITLE10=Within This Broken Heart Of Mine
TTITLE11=Cotton Haired Girl
EXTD=
EXTT0=
EXTT1=
EXTT2=
EXTT3=
EXTT4=
EXTT5=
EXTT6=
EXTT7=
EXTT8=
EXTT9=
EXTT10=
EXTT11=
PLAYORDER=
